<!DOCTYPE svg PUBLIC "-//W3C//DTD SVG 1.1//EN" "http://www.w3.org/Graphics/SVG/1.1/DTD/svg11.dtd">
<!-- Uploaded to: SVG Repo, www.svgrepo.com, Transformed by: SVG Repo Mixer Tools -->
<svg height="64px" width="64px" version="1.1" id="Layer_1" xmlns="http://www.w3.org/2000/svg" xmlns:xlink="http://www.w3.org/1999/xlink" viewBox="0 0 512.001 512.001" xml:space="preserve" fill="#000000">
<g id="SVGRepo_bgCarrier" stroke-width="0"/>
<g id="SVGRepo_tracerCarrier" stroke-linecap="round" stroke-linejoin="round"/>
<g id="SVGRepo_iconCarrier"> <g> <path style="fill:#C39FBE;" d="M404.207,258.37c-11.299-2.428-32.539-14.548-56.717-30.27l-18.282,18.291 c-6.894,6.894-18.079,6.894-24.964,0c-6.894-6.903-6.894-18.07,0-24.973L317.662,208c-9.057-6.303-18.141-12.756-26.968-19.129 l-14.451,14.451c-6.894,6.894-18.079,6.894-24.964,0c-6.894-6.894-6.894-18.07,0-24.964l10.593-10.602 c-15.837-11.767-29.158-21.919-37.367-28.239c-5.129-3.937-12.367-3.452-16.94,1.121l-18.132,18.132 c-5.394,5.402-5.394,14.159,0,19.571l4.935,4.926c6.091,6.091,4.334,16.587-3.584,19.986 C103.619,240.68,62.88,168.549,62.88,168.549C33.678,163.306,8.987,331.012,8.987,331.012h503.013 C512.001,265.141,442.387,266.615,404.207,258.37"/> <path style="fill:#9A7BA8;" d="M145.431,213.957c-56.02,1.518-82.556-45.409-82.556-45.409 C33.683,163.313,8.983,331.01,8.983,331.01H184.06C180.079,289.362,166.767,249.417,145.431,213.957"/> <path style="fill:#DEDEE1;" d="M512,331.008H8.986L0,357.182c0,0,6.735,17.964,71.865,17.964h387.169 C459.034,375.146,512.141,371.835,512,331.008"/> <g> <path style="fill:#C39FBE;" d="M251.275,203.319L251.275,203.319c-6.894-6.886-6.894-18.07,0-24.964l18.723-18.723 c6.894-6.894,18.07-6.894,24.964,0c6.894,6.894,6.894,18.07,0,24.964l-18.723,18.723 C269.346,210.213,258.161,210.213,251.275,203.319"/> <path style="fill:#C39FBE;" d="M304.241,246.387L304.241,246.387c-6.894-6.894-6.894-18.07,0-24.964l18.723-18.723 c6.894-6.894,18.07-6.894,24.964,0c6.894,6.886,6.894,18.07,0,24.964l-18.723,18.723 C322.311,253.282,311.127,253.282,304.241,246.387"/> <path style="fill:#C39FBE;" d="M114.759,278.042h-96.38c-5.906,29.281-9.393,52.966-9.393,52.966h123.427v-35.31 C132.414,285.952,124.504,278.042,114.759,278.042"/> </g> <path style="fill:#9A7BA8;" d="M190.543,203.353c-1.289,0.547-2.534,0.998-3.814,1.51l110.265,71.751 c33.139,21.566,77.497,12.182,99.063-20.966c-11.988-4.873-29.29-15.016-48.569-27.542l-17.611,17.62 c-6.223,6.215-16.234,7.733-23.367,2.595c-9.101-6.55-9.852-19.324-2.269-26.898l13.418-13.427 c-9.057-6.294-18.141-12.756-26.968-19.129l-13.789,13.789c-6.215,6.215-16.234,7.733-23.358,2.595 c-9.101-6.55-9.852-19.315-2.269-26.898l10.593-10.593c-15.837-11.767-29.158-21.928-37.367-28.239 c-5.129-3.946-12.367-3.46-16.94,1.121l-18.132,18.123c-5.402,5.411-5.402,14.168,0,19.571l4.935,4.935 C200.527,189.432,198.577,199.954,190.543,203.353"/> </g> </g>
</svg>